<?xml version="1.0" standalone="no"?>
<!DOCTYPE svg PUBLIC "-//W3C//DTD SVG 20010904//EN"
 "http://www.w3.org/TR/2001/REC-SVG-20010904/DTD/svg10.dtd">
<svg version="1.0" xmlns="http://www.w3.org/2000/svg"
 width="512.000000pt" height="512.000000pt" viewBox="0 0 512.000000 512.000000"
 preserveAspectRatio="xMidYMid meet">
<metadata>
Created by potrace 1.11, written by Peter Selinger 2001-2013
</metadata>
<g transform="translate(0.000000,512.000000) scale(0.100000,-0.100000)"
fill="#000000" stroke="none">
<path d="M1 3533 c0 -1419 2 -1582 15 -1533 29 108 92 210 129 210 13 0 34 46
90 195 21 55 54 134 73 175 19 41 42 93 52 115 9 22 42 86 73 142 31 56 61
119 66 141 6 21 21 54 34 73 28 42 102 99 128 99 18 0 100 58 193 137 22 18
55 35 75 38 20 4 47 12 61 20 39 21 112 45 138 45 13 0 32 5 43 11 14 7 35 7
66 1 44 -10 50 -8 117 29 43 25 103 48 155 60 47 11 133 42 191 68 58 27 119
52 135 57 20 7 36 21 48 47 12 26 33 46 72 68 30 17 55 34 55 37 0 4 17 26 38
49 20 23 45 53 54 66 35 50 338 307 400 339 56 28 74 32 164 36 179 7 278 -28
381 -135 74 -78 134 -188 184 -340 40 -125 37 -143 -45 -266 -114 -171 -171
-234 -265 -295 -47 -31 -129 -92 -181 -136 -84 -71 -178 -125 -217 -126 -19 0
-17 -9 27 -103 28 -60 43 -108 50 -161 5 -42 19 -109 31 -150 l22 -74 61 0
c82 0 228 18 244 30 6 6 12 22 12 35 0 16 7 27 19 30 10 2 24 16 30 29 13 29
33 30 69 4 31 -23 84 -19 121 9 19 15 21 21 12 45 -13 32 -2 60 30 76 23 13
49 -2 49 -29 1 -17 33 -61 46 -61 4 0 12 -7 18 -15 10 -13 37 -11 228 15 119
16 234 36 255 44 21 8 63 17 93 21 30 3 89 10 130 15 41 5 129 16 195 25 333
45 358 47 373 31 13 -12 24 -4 86 65 47 52 78 79 93 79 32 0 45 -49 37 -138
l-7 -74 23 12 c12 6 41 14 64 16 22 2 70 8 106 12 36 5 68 7 73 5 4 -2 7 529
7 1181 l0 1186 -2560 0 -2560 0 1 -1587z"/>
<path d="M4742 2768 c-18 -18 -14 -28 11 -28 29 0 51 15 43 29 -9 15 -39 14
-54 -1z"/>
<path d="M5055 2619 c-27 -5 -86 -10 -130 -12 -45 -2 -90 -9 -102 -15 -11 -6
-23 -8 -27 -5 -12 12 -90 2 -108 -14 -10 -9 -18 -26 -18 -38 0 -13 -8 -32 -17
-44 -16 -19 -43 -24 -213 -45 -427 -53 -630 -68 -630 -45 0 18 -21 -2 -32 -29
-17 -45 -47 -176 -41 -185 3 -5 -3 -17 -14 -29 -16 -17 -18 -38 -18 -157 0
-75 2 -154 5 -175 l5 -39 -95 -35 c-52 -19 -111 -40 -130 -48 -55 -21 -66 -17
-93 29 -24 40 -25 50 -26 202 l0 160 -33 -4 c-108 -10 -105 -8 -150 -106 -23
-49 -46 -93 -51 -96 -5 -3 29 -35 75 -70 126 -97 138 -105 229 -145 46 -20
127 -65 179 -99 72 -48 204 -115 225 -115 2 0 5 14 9 30 3 17 14 33 23 36 10
3 34 14 53 24 19 10 50 21 68 25 28 6 34 4 38 -12 3 -11 62 -57 131 -104 70
-46 147 -101 172 -121 25 -21 60 -45 78 -53 18 -9 76 -45 130 -80 54 -36 103
-65 109 -65 20 0 94 -89 94 -112 0 -33 -36 -87 -65 -98 -31 -12 -56 -3 -130
46 -42 28 -58 35 -67 26 -7 -7 -22 -12 -35 -12 -13 0 -23 -6 -24 -12 0 -7 -4
-34 -8 -60 -5 -31 -4 -51 3 -58 8 -8 4 -17 -13 -31 -20 -17 -26 -36 -38 -117
-36 -259 -53 -414 -47 -436 7 -30 -17 -40 -73 -31 -87 15 -152 54 -113 67 6 2
26 107 44 233 46 312 46 303 16 325 -22 16 -23 21 -12 45 22 47 5 39 -19 -10
-20 -41 -102 -115 -127 -115 -4 0 -13 -9 -20 -20 -32 -51 -151 -8 -246 89 -41
41 -48 54 -44 79 4 28 -1 33 -76 80 -117 72 -128 77 -293 121 -82 22 -188 55
-234 74 -46 19 -154 61 -239 93 -85 32 -181 73 -213 91 -33 18 -62 33 -65 33
-4 0 -6 -44 -4 -99 l3 -98 -55 -60 c-51 -55 -57 -68 -75 -143 l-19 -82 40 -63
c33 -54 38 -67 28 -85 -10 -19 0 -32 102 -138 122 -127 125 -132 315 -502 l80
-155 1046 -3 1047 -2 0 1315 c0 723 -3 1314 -7 1314 -5 -1 -30 -5 -58 -10z"/>
<path d="M2870 2330 c-8 -6 -33 -15 -56 -21 -52 -13 -71 -53 -42 -88 10 -13
18 -30 18 -38 0 -8 3 -13 8 -11 50 22 142 70 146 76 3 4 2 27 -1 50 -5 37 -9
42 -32 42 -14 0 -33 -5 -41 -10z"/>
<path d="M3345 2205 c-5 -2 -22 -6 -37 -9 -36 -8 -36 -26 0 -26 16 0 32 8 40
20 7 11 11 20 10 19 -2 0 -7 -2 -13 -4z"/>
<path d="M3235 2170 c-3 -5 -1 -10 4 -10 6 0 11 5 11 10 0 6 -2 10 -4 10 -3 0
-8 -4 -11 -10z"/>
<path d="M1 823 l-1 -823 600 0 600 0 -46 75 c-53 88 -54 90 -99 312 -22 107
-35 202 -35 248 0 62 -4 81 -21 105 -20 26 -21 36 -15 117 4 48 10 112 13 141
l6 52 -124 0 c-80 1 -138 6 -164 15 -28 10 -62 12 -117 8 -69 -5 -85 -3 -131
18 -82 37 -166 97 -195 139 -19 27 -43 46 -80 61 -90 37 -148 131 -177 284
-11 61 -13 -42 -14 -752z"/>
</g>
</svg>
