<svg width="222" height="31" viewBox="0 0 222 31" fill="none" xmlns="http://www.w3.org/2000/svg">
<g opacity="0.4">
<path d="M103.764 18.6248H105.457C106.341 18.6248 106.93 19.0791 106.93 19.9119C106.93 20.3662 106.709 20.7447 106.341 20.9719C106.856 21.1233 107.151 21.6533 107.151 22.1075C107.151 23.0918 106.414 23.546 105.531 23.546H103.764V18.6248ZM105.457 20.669C105.825 20.669 106.046 20.3662 106.046 20.0633C106.046 19.6848 105.825 19.4576 105.457 19.4576H104.647V20.669H105.457ZM105.531 22.7889C105.973 22.7889 106.267 22.4861 106.267 22.0318C106.267 21.6532 106.046 21.3504 105.531 21.3504H104.574V22.7889H105.531ZM109.507 19.9119C109.948 19.9119 110.464 20.0633 110.832 20.4419L110.464 21.0476C110.243 20.8204 109.875 20.669 109.58 20.669C108.991 20.669 108.549 21.1233 108.549 21.729C108.549 22.3346 108.991 22.8646 109.654 22.8646C110.022 22.8646 110.39 22.6375 110.685 22.4104L111.053 23.016C110.685 23.3946 110.169 23.6217 109.654 23.6217C108.549 23.6217 107.813 22.7889 107.813 21.8047C107.666 20.8204 108.402 19.9119 109.507 19.9119ZM112.967 19.9119C113.924 19.9119 114.513 20.669 114.513 21.5775V21.9561H112.157C112.231 22.5618 112.673 22.8646 113.188 22.8646C113.556 22.8646 113.924 22.7132 114.145 22.4861L114.513 23.0918C114.145 23.3946 113.63 23.6217 113.114 23.6217C112.01 23.6217 111.274 22.7889 111.274 21.8047C111.2 20.7447 111.936 19.9119 112.967 19.9119ZM112.01 18.6248H112.673V19.4576H112.01V18.6248ZM113.63 21.3504C113.63 20.8961 113.335 20.5933 112.967 20.5933C112.525 20.5933 112.231 20.8961 112.157 21.3504H113.63ZM113.262 18.6248H113.924V19.4576H113.262V18.6248ZM116.943 19.9876H120.035V23.546H119.152V20.7447H117.753V23.546H116.869L116.943 19.9876ZM120.919 19.9876H121.729V20.4419C121.949 20.0633 122.391 19.8362 122.833 19.8362C123.79 19.8362 124.379 20.5933 124.379 21.6533C124.379 22.7889 123.716 23.4703 122.833 23.4703C122.465 23.4703 122.097 23.3189 121.802 22.9403V24.7574H120.919V19.9876ZM122.612 22.8646C123.054 22.8646 123.496 22.4861 123.496 21.8047C123.496 21.1233 123.127 20.669 122.686 20.669C122.244 20.669 121.802 21.0476 121.802 21.8047C121.729 22.3346 122.023 22.8646 122.612 22.8646ZM126.735 19.9119C127.766 19.9119 128.649 20.669 128.649 21.729C128.649 22.7889 127.84 23.546 126.735 23.546C125.704 23.546 124.821 22.7889 124.821 21.729C124.821 20.7447 125.704 19.9119 126.735 19.9119ZM126.735 22.8646C127.324 22.8646 127.766 22.4104 127.766 21.729C127.766 21.1233 127.324 20.5933 126.735 20.5933C126.146 20.5933 125.704 21.0476 125.704 21.729C125.704 22.4861 126.146 22.8646 126.735 22.8646ZM129.312 19.9876H130.122V22.7889H131.226V19.9876H132.036V22.7889H133.141V19.9876H133.951V22.7889H134.466V24.3788H133.73V23.546H129.459L129.312 19.9876ZM136.454 19.9119C137.411 19.9119 138 20.669 138 21.5775V21.9561H135.644C135.718 22.5618 136.159 22.8646 136.675 22.8646C137.043 22.8646 137.411 22.7132 137.632 22.4861L137.926 23.0918C137.558 23.3946 137.043 23.6217 136.527 23.6217C135.423 23.6217 134.687 22.7889 134.687 21.8047C134.76 20.7447 135.423 19.9119 136.454 19.9119ZM137.116 21.3504C137.116 20.8961 136.822 20.5933 136.454 20.5933C136.012 20.5933 135.718 20.8961 135.644 21.3504H137.116Z" fill="#9BC1FF"/>
<path d="M118.415 4.54264V14.6879C118.415 14.8393 118.268 14.9907 118.121 14.9907H116.133C115.986 14.9907 115.838 14.8393 115.838 14.6879V4.54264C115.838 4.39122 115.986 4.2398 116.133 4.2398H118.121C118.342 4.2398 118.415 4.39122 118.415 4.54264ZM134.098 4.2398H131.889C131.742 4.2398 131.668 4.31551 131.668 4.46693L129.901 10.4481L127.987 4.46693C127.913 4.31551 127.84 4.31551 127.766 4.31551H126.22C126.073 4.31551 125.999 4.39122 125.999 4.46693L124.085 10.4481L122.318 4.46693C122.318 4.31551 122.17 4.2398 122.097 4.2398H119.814C119.741 4.2398 119.667 4.31551 119.593 4.39122C119.52 4.46693 119.52 4.54264 119.52 4.61835L122.833 14.7636C122.907 14.915 122.98 14.915 123.054 14.915H124.821C124.968 14.915 125.042 14.8393 125.042 14.7636L126.956 8.85815L128.87 14.7636C128.944 14.915 129.018 14.915 129.091 14.915H130.858C131.006 14.915 131.079 14.8393 131.079 14.7636L134.392 4.61835C134.392 4.54264 134.392 4.46693 134.319 4.39122C134.319 4.31551 134.171 4.2398 134.098 4.2398ZM137.485 4.2398H135.497C135.349 4.2398 135.202 4.39122 135.202 4.54264V14.6879C135.202 14.8393 135.349 14.9907 135.497 14.9907H137.485C137.632 14.9907 137.779 14.8393 137.779 14.6879V4.54264C137.779 4.39122 137.632 4.2398 137.485 4.2398ZM114.734 14.6122C114.808 14.6879 114.808 14.8393 114.734 14.915C114.66 14.915 114.66 14.9907 114.587 14.9907H112.157C112.084 14.9907 111.936 14.915 111.936 14.8393L111.495 14.3093C110.611 14.8393 109.654 15.2178 108.549 15.2178C105.531 15.2178 103.101 12.7194 103.101 9.61525C103.101 6.51112 105.531 4.01267 108.549 4.01267C111.568 4.01267 113.998 6.51112 113.998 9.61525C113.998 10.6752 113.703 11.7352 113.114 12.6437L114.734 14.6122ZM109.875 12.3408L108.77 10.978C108.623 10.8266 108.77 10.5995 108.918 10.5995H111.2C111.347 10.2967 111.347 9.9181 111.347 9.53954C111.347 7.87391 110.169 6.43541 108.476 6.43541C106.782 6.43541 105.604 7.87391 105.604 9.53954C105.604 11.2052 106.782 12.6437 108.476 12.6437C108.991 12.7194 109.433 12.568 109.875 12.3408ZM94.9286 20.8961C95.0022 21.5018 94.8549 21.729 94.6341 21.729C94.4132 21.729 94.1923 21.5018 93.8978 20.9719C93.6033 20.5176 93.456 19.9119 93.6769 19.6848C93.7505 19.5334 93.9714 19.4576 94.2659 19.5333C94.7077 19.6848 94.9286 20.5176 94.9286 20.8961ZM92.2044 22.1832C92.7934 22.7132 93.0143 23.3189 92.6462 23.7731C92.4989 24.0003 92.2044 24.1517 91.8363 24.1517C91.4681 24.1517 91.1736 24.0003 90.9527 23.7731C90.4374 23.3189 90.2165 22.4861 90.5846 22.0318C90.7319 21.8804 90.9527 21.729 91.1736 21.729C91.5418 21.8047 91.9099 21.9561 92.2044 22.1832ZM91.1736 27.1801C93.7506 27.1801 96.5484 28.0887 99.6407 30.8899C99.9352 31.1928 100.377 30.8142 100.082 30.4357C97.0637 26.4987 94.2659 25.7416 91.4681 25.1359C88.0813 24.3788 86.3143 22.4104 85.0626 20.2147C84.8418 19.7605 84.6945 19.8362 84.6945 20.4419C84.6945 21.2747 84.7681 22.1075 84.8418 22.9403H84.4C79.5407 22.9403 75.5648 18.852 75.5648 13.7793C75.5648 8.70673 79.5407 4.61835 84.4 4.61835C89.2593 4.61835 93.2352 8.70673 93.2352 13.7793C93.2352 14.1579 93.2352 14.5364 93.1615 14.8393C92.4989 14.6879 91.2473 14.6879 90.3637 14.7636C89.9956 14.7636 90.0692 14.9907 90.2901 14.9907C93.2352 15.5207 95.2231 17.4135 95.6648 20.8204C95.6648 20.8961 95.8121 20.8961 95.8121 20.8961C96.9901 18.852 97.7264 16.4292 97.7264 13.7793C97.8 6.20828 91.8363 0 84.4 0C76.9637 0 71 6.13256 71 13.7793C71 21.4261 77.0374 27.5587 84.4 27.5587C86.3879 27.6344 88.3022 27.1801 91.1736 27.1801Z" fill="#9BC1FF"/>
</g>
<path opacity="0.4" d="M12.9589 8.1897L9.28219 18.1051L7.77534 9.69583C7.59452 8.7545 6.87123 8.1897 6.14795 8.1897H0.120548L0 8.62899C1.26575 8.88001 2.65206 9.38205 3.49589 9.8841C4.03836 10.1979 4.1589 10.4489 4.33973 11.1392L7.1726 22.749H10.9096L16.6959 8.1897H12.9589ZM18.2027 8.1897L15.2493 22.749H18.8055L21.7589 8.1897H18.2027ZM38.6356 12.1433L39.7206 17.603H36.7671L38.6356 12.1433ZM38.0932 8.1897C37.4301 8.1897 36.8274 8.62899 36.5863 9.25654L31.2219 22.749H34.9589L35.6822 20.5525H40.263L40.6849 22.749H44L41.1068 8.1897H38.0932ZM22.7836 12.7709C22.7836 14.8418 24.5315 16.0341 25.9178 16.7244C27.3041 17.4148 27.7863 17.9168 27.7863 18.5444C27.7863 19.5484 26.7014 19.9877 25.6767 19.9877C23.8685 19.9877 22.8438 19.4857 22 19.0464L21.337 22.2469C22.1808 22.6235 23.6877 23 25.3151 23C29.0521 23 31.5233 21.0546 31.5233 18.0423C31.5233 14.2142 26.5205 13.9632 26.5205 12.2688C26.5205 11.7668 27.0027 11.202 28.0274 11.0765C28.5096 11.0137 29.9562 10.9509 31.5233 11.704L32.126 8.62899C31.2822 8.31521 30.1973 8.00143 28.811 8.00143C25.2548 7.93868 22.7836 9.94685 22.7836 12.7709Z" fill="#9BC1FF"/>
<g opacity="0.4">
<path d="M170.338 3H169.003C167.669 3 166.716 3.94488 166.716 5.83465C166.716 6.9685 167.192 7.72441 168.145 8.10236L166.43 11.2205C166.43 11.315 166.43 11.315 166.525 11.315H167.288C167.383 11.315 167.383 11.315 167.383 11.2205L168.908 8.29134H169.385V11.2205C169.385 11.2205 169.385 11.315 169.48 11.315H170.147C170.242 11.315 170.242 11.315 170.242 11.2205L170.338 3C170.433 3.18898 170.433 3 170.338 3ZM169.671 7.62992H169.194C168.431 7.62992 167.764 7.15748 167.764 5.83465C167.764 4.41732 168.431 3.94488 169.099 3.94488H169.575V7.62992H169.671Z" fill="#9BC1FF"/>
<path d="M174.627 5.83465H173.96C173.96 5.83465 173.865 5.83464 173.865 5.92913V8.00787H172.53V5.92913C172.53 5.92913 172.53 5.83465 172.435 5.83465H171.768C171.768 5.83465 171.672 5.83464 171.672 5.92913V11.315C171.672 11.315 171.672 11.4095 171.768 11.4095H172.435C172.435 11.4095 172.53 11.4094 172.53 11.315V8.76378H173.865V11.315C173.865 11.315 173.865 11.4095 173.96 11.4095H174.627C174.627 11.4095 174.722 11.4094 174.722 11.315L174.627 5.83465Z" fill="#9BC1FF"/>
<path d="M190.259 11.0315L190.164 10.6535C190.164 10.6535 189.783 10.748 189.401 10.748C188.448 10.748 188.067 9.99212 188.067 8.66929C188.067 7.53543 188.448 6.49606 189.02 6.49606C189.115 6.49606 189.401 6.49606 189.687 6.77952C189.687 6.77952 189.687 6.77952 189.783 6.77952C189.783 6.77952 189.878 6.77953 189.878 6.68504L190.164 6.2126V6.1181C190.164 6.1181 190.164 6.02362 190.069 6.02362C189.592 5.74015 189.306 5.74016 189.02 5.74016C187.972 5.74016 187.209 7.06298 187.209 8.95275C187.209 10.6535 187.972 11.5039 189.115 11.5039C189.497 11.5039 190.069 11.2205 190.259 11.0315C190.259 11.126 190.259 11.126 190.259 11.0315Z" fill="#9BC1FF"/>
<path d="M185.493 8.29133L186.828 5.83464V5.74016H186.161C186.065 5.74016 185.875 5.83464 185.875 6.02362L184.826 8.10236C184.826 8.19685 184.731 8.38582 184.731 8.38582V5.92913C184.731 5.92913 184.731 5.83464 184.635 5.83464H183.873C183.873 5.83464 183.778 5.83464 183.778 5.92913V11.315C183.778 11.315 183.778 11.4094 183.873 11.4094H184.635C184.635 11.4094 184.731 11.4094 184.731 11.315V8.48031C184.731 8.48031 184.731 8.48031 184.826 8.5748L186.161 11.126C186.256 11.2205 186.256 11.2205 186.446 11.2205H187.114C187.114 11.2205 187.114 11.2205 187.114 11.126L185.493 8.29133Z" fill="#9BC1FF"/>
<path d="M179.107 10.748H179.012C178.916 10.748 178.726 10.6535 178.726 10.4646V5.83464C178.726 5.83464 178.726 5.74016 178.63 5.74016H176.438C176.438 5.74016 176.343 5.74015 176.343 5.83464V6.2126C176.343 7.53543 176.247 9.33071 175.58 10.5591H175.294C175.199 10.5591 175.199 10.5591 175.199 10.6535C175.199 10.6535 175.199 11.9764 175.199 12.3543C175.199 12.3543 175.199 12.4488 175.294 12.4488H175.771C175.866 12.4488 175.866 12.3543 175.866 12.3543V11.4094H178.154V12.5433C178.154 12.5433 178.154 12.6378 178.249 12.6378H178.726C178.821 12.6378 178.821 12.6378 178.821 12.5433L179.107 10.748ZM176.343 10.748C176.819 9.80314 177.105 8.66929 177.296 7.44094C177.296 7.15747 177.296 6.77953 177.296 6.68504H177.963V10.748H176.343Z" fill="#9BC1FF"/>
<path d="M181.395 5.74016C180.251 5.74016 179.679 7.25196 179.679 8.85826C179.679 10.559 180.441 11.5984 181.49 11.5984C181.967 11.5984 182.538 11.315 182.824 11.2205C182.824 11.2205 182.824 11.2205 182.824 11.126L182.729 10.748C182.729 10.748 182.729 10.6535 182.634 10.6535C182.634 10.6535 182.253 10.748 181.871 10.748C180.918 10.748 180.537 9.99212 180.537 9.04724C180.537 8.95275 180.537 8.76377 180.537 8.76377C180.537 8.76377 180.918 8.76377 181.204 8.76377H182.92V8.29133C182.92 6.59055 182.253 5.74016 181.395 5.74016ZM181.204 8.19685C180.918 8.19685 180.537 8.19685 180.537 8.19685C180.537 8.19685 180.537 8.10236 180.537 7.81889C180.632 6.87401 180.918 6.40157 181.299 6.40157C181.681 6.40157 181.776 6.87401 181.967 7.72441C181.967 7.81889 181.967 8.10236 181.967 8.10236H181.204V8.19685Z" fill="#9BC1FF"/>
<path d="M187.018 25.2047H188.829C190.545 25.2047 191.975 24.2598 191.975 21.9921C191.975 19.8189 190.545 19.063 188.734 19.063C188.448 19.063 188.258 19.063 188.258 19.063V15.5669C188.258 15.5669 188.258 15.4724 188.162 15.4724H186.828C186.732 15.4724 186.732 15.4724 186.732 15.5669V25.1102C186.828 25.1102 186.923 25.2047 187.018 25.2047ZM188.353 20.1024H188.734C189.878 20.1024 190.545 20.8583 190.545 21.8976C190.545 23.2205 189.878 23.9764 188.829 23.9764H188.353V20.1024Z" fill="#9BC1FF"/>
<path d="M184.826 15.4724H183.682C183.587 15.4724 183.587 15.5669 183.587 15.5669V19.252H181.395V15.5669C181.395 15.4724 181.395 15.4724 181.299 15.4724H180.06C179.965 15.4724 179.965 15.4724 179.965 15.5669V25.1102C179.965 25.2047 179.965 25.2047 180.06 25.2047H181.395C181.49 25.2047 181.49 25.2047 181.49 25.1102V20.5748H183.682V25.1102C183.682 25.2047 183.682 25.2047 183.778 25.2047H184.921C185.017 25.2047 185.017 25.1102 185.017 25.1102V15.5669C185.017 15.4724 185.017 15.4724 184.826 15.4724Z" fill="#9BC1FF"/>
<path d="M171.672 23.9764H171.386C171.1 23.9764 171.005 23.8819 171.005 23.5984V15.6614C171.005 15.5669 171.005 15.5669 170.91 15.5669H167.002C166.906 15.5669 166.906 15.5669 166.906 15.6614V16.3228C166.906 18.5905 166.811 21.7087 165.477 23.9764H165.095C165 23.9764 165 23.9764 165 24.0709C165 24.0709 165 26.3386 165 26.9055C165 27 165.095 27 165.095 27H166.048C166.334 27 166.334 26.9055 166.334 26.7165V25.0157H170.433V26.811C170.433 26.9055 170.433 26.9055 170.528 26.9055H171.577C171.672 26.9055 171.863 26.811 171.863 26.622V23.8819C171.863 24.0709 171.768 23.9764 171.672 23.9764ZM169.575 23.9764H166.716C167.764 22.2756 168.145 20.3858 168.241 18.1181C168.241 17.6457 168.241 17.0787 168.241 16.7008H169.575V23.9764Z" fill="#9BC1FF"/>
<path d="M175.676 15.189C173.579 15.189 172.53 17.9291 172.53 20.6693C172.53 23.5984 173.865 25.3937 175.771 25.3937C176.724 25.3937 177.582 25.0157 177.963 24.7323C178.059 24.7323 178.059 24.6378 178.059 24.6378L177.963 23.9764C177.963 23.8819 177.963 23.8819 177.868 23.8819C177.773 23.8819 177.201 24.1654 176.438 24.1654C174.913 24.1654 174.246 22.8425 174.246 21.0472C174.246 20.7638 174.246 20.5748 174.246 20.5748C174.246 20.5748 175.008 20.6693 175.39 20.6693H178.249V19.9134C178.344 16.7953 177.201 15.189 175.676 15.189ZM175.485 19.4409C175.104 19.4409 174.341 19.5354 174.341 19.5354C174.341 19.5354 174.341 19.252 174.341 18.874C174.436 17.1732 175.008 16.4173 175.676 16.4173C176.343 16.4173 176.724 17.3622 176.819 18.685C176.819 18.9685 176.819 19.3465 176.819 19.3465H175.485V19.4409Z" fill="#9BC1FF"/>
<path d="M197.503 15.4724H193.405C193.309 15.4724 193.309 15.4724 193.309 15.5669V25.1102C193.309 25.2047 193.309 25.2047 193.405 25.2047H194.739C194.834 25.2047 194.834 25.2047 194.834 25.1102V16.7953H197.599C197.599 16.7953 197.694 16.7953 197.694 16.7008C197.694 16.6063 197.694 15.6614 197.694 15.6614C197.694 15.4724 197.503 15.4724 197.503 15.4724Z" fill="#9BC1FF"/>
<path d="M203.604 15.4724H202.46C202.365 15.4724 202.365 15.4724 202.365 15.5669L200.077 21.7087L199.982 22.1811V15.4724C199.982 15.3779 199.982 15.3779 199.886 15.3779H198.742C198.647 15.3779 198.647 15.4724 198.647 15.4724V24.8268C198.647 25.1102 198.647 25.1102 198.742 25.1102H199.886C199.886 25.1102 199.982 25.1102 199.982 25.0157L202.269 18.685L202.365 18.3071V24.8268C202.365 24.9213 202.365 24.9213 202.46 24.9213H203.604C203.699 24.9213 203.699 24.8268 203.699 24.6378V15.2835C203.699 15.4724 203.604 15.4724 203.604 15.4724Z" fill="#9BC1FF"/>
<path d="M220.856 15.378H220.094V20.2913C220.094 21.2362 219.712 21.7087 218.569 21.9921L211.42 24.0709C211.42 24.0709 210.753 24.1654 210.753 23.6929C210.753 23.2205 211.229 23.2205 211.42 23.0315L217.901 20.4803C218.378 20.1968 218.95 19.4409 218.95 18.9685V11.315C218.95 10.1811 217.806 10.5591 217.52 10.6535C217.234 10.748 209.99 14.9055 209.99 14.9055C209.513 15.189 208.941 15.9449 208.941 16.4173V24.0709C208.941 24.5433 209.704 25.3937 210.276 25.3937H220.856C221.523 25.3937 222 25.0157 222 24.3543V16.5118C222 15.8504 221.523 15.378 220.856 15.378ZM215.614 14.811C216.09 14.4331 216.662 14.5276 216.662 15.0945C216.758 15.5669 216.376 16.1339 215.995 16.5118C215.518 16.8898 214.946 16.7953 214.946 16.2283C214.946 15.6614 215.137 15.189 215.614 14.811Z" fill="#9BC1FF"/>
</g>
</svg>
