<svg width="59" height="69" viewBox="0 0 59 69" fill="none" xmlns="http://www.w3.org/2000/svg">
<path opacity="0.3" d="M58.544 51.432V69H4.688V55.08L28.976 32.616C31.088 30.632 32.496 28.936 33.2 27.528C33.904 26.12 34.256 24.744 34.256 23.4C34.256 21.736 33.68 20.456 32.528 19.56C31.44 18.6 29.84 18.12 27.728 18.12C25.68 18.12 23.76 18.664 21.968 19.752C20.176 20.84 18.8 22.376 17.84 24.36L0.752 15.816C3.312 11.016 7.056 7.24 11.984 4.488C16.912 1.672 22.864 0.263998 29.84 0.263998C35.152 0.263998 39.856 1.128 43.952 2.856C48.048 4.584 51.248 7.04799 53.552 10.248C55.856 13.448 57.008 17.128 57.008 21.288C57.008 25 56.208 28.488 54.608 31.752C53.072 34.952 50.032 38.6 45.488 42.696L35.888 51.432H58.544Z" fill="url(#paint0_linear)"/>
<defs>
<linearGradient id="paint0_linear" x1="31.5" y1="-29" x2="31.5" y2="98" gradientUnits="userSpaceOnUse">
<stop stop-color="#A2A7C7"/>
<stop offset="1" stop-color="#202430" stop-opacity="0.45"/>
</linearGradient>
</defs>
</svg>
