<svg width="58" height="70" viewBox="0 0 58 70" fill="none" xmlns="http://www.w3.org/2000/svg">
<path opacity="0.3" d="M41.512 27.392C46.696 28.672 50.664 31.008 53.416 34.4C56.232 37.728 57.64 41.76 57.64 46.496C57.64 50.528 56.52 54.304 54.28 57.824C52.104 61.28 48.712 64.096 44.104 66.272C39.496 68.448 33.768 69.536 26.92 69.536C22.184 69.536 17.448 69.024 12.712 68C8.04 66.976 3.944 65.472 0.424 63.488L8.104 46.784C10.856 48.384 13.8 49.6 16.936 50.432C20.136 51.264 23.208 51.68 26.152 51.68C28.776 51.68 30.888 51.232 32.488 50.336C34.088 49.44 34.888 48.16 34.888 46.496C34.888 43.424 32.232 41.888 26.92 41.888H17.992V27.968L27.88 17.888H3.88V0.799995H53.992V14.72L41.512 27.392Z" fill="url(#paint0_linear)"/>
<defs>
<linearGradient id="paint0_linear" x1="30.5" y1="-30" x2="30.5" y2="97" gradientUnits="userSpaceOnUse">
<stop stop-color="#A2A7C7"/>
<stop offset="1" stop-color="#202430" stop-opacity="0.45"/>
</linearGradient>
</defs>
</svg>
