<svg preserveAspectRatio="none" width="28" height="23" viewBox="0 0 28 23" fill="none" xmlns="http://www.w3.org/2000/svg">
<g opacity="1">
<path d="M5.08148 22.9453V21.412C5.08148 20.8096 4.77037 20.4262 4.14814 20.4262C3.83703 20.4262 3.52592 20.5358 3.31851 20.8643C3.16296 20.5905 2.9037 20.4262 2.54074 20.4262C2.28148 20.4262 2.07407 20.481 1.86666 20.7548V20.4262H1.34814V22.8905H1.86666V21.5215C1.86666 21.0834 2.07407 20.8643 2.43703 20.8643C2.8 20.8643 2.95555 21.0834 2.95555 21.5215V22.8905H3.47407V21.5215C3.47407 21.0834 3.73333 20.8643 4.04444 20.8643C4.35555 20.8643 4.56296 21.0834 4.56296 21.5215V22.8905H5.08148V22.9453ZM12.5481 20.481H11.7185V19.7691H11.2V20.481H10.7333V20.9739H11.2V22.0691C11.2 22.6167 11.4074 22.9453 11.9778 22.9453C12.1852 22.9453 12.4444 22.8905 12.6 22.781L12.4444 22.3429C12.2889 22.4524 12.1852 22.4524 12.0296 22.4524C11.7704 22.4524 11.7185 22.2881 11.7185 22.0691V20.9739H12.5481V20.481ZM16.8518 20.4262C16.5407 20.4262 16.3852 20.5905 16.2296 20.7548V20.4262H15.7111V22.8905H16.2296V21.5215C16.2296 21.1381 16.3852 20.8643 16.6963 20.8643C16.8 20.8643 16.9037 20.8643 17.0074 20.9191L17.163 20.4262C17.1111 20.4262 16.9556 20.4262 16.8518 20.4262ZM10.3704 20.7C10.1111 20.5358 9.8 20.4262 9.43703 20.4262C8.86666 20.4262 8.45185 20.7548 8.45185 21.1929C8.45185 21.5762 8.76296 21.85 9.22963 21.9048H9.48888C9.74814 21.9596 9.9037 22.0143 9.9037 22.1786C9.9037 22.3429 9.69629 22.5072 9.38518 22.5072C9.12592 22.5072 8.81481 22.3977 8.6074 22.2334L8.34814 22.6167C8.6074 22.8358 8.97037 22.9453 9.33333 22.9453C10.0074 22.9453 10.3704 22.6167 10.3704 22.1786C10.3704 21.7405 10.0593 21.5215 9.59259 21.4667H9.33333C9.12592 21.4667 8.97037 21.412 8.97037 21.2477C8.97037 21.0834 9.12592 20.9739 9.38518 20.9739C9.69629 20.9739 9.95555 21.0834 10.1111 21.1929C10.163 21.1381 10.3704 20.7 10.3704 20.7ZM23.8 20.4262C23.4889 20.4262 23.3333 20.5905 23.1778 20.7548V20.4262H22.6593V22.8905H23.1778V21.5215C23.1778 21.1381 23.3333 20.8643 23.6444 20.8643C23.7481 20.8643 23.8518 20.8643 23.9556 20.9191L24.1111 20.4262C24.0074 20.4262 23.9037 20.4262 23.8 20.4262ZM17.3704 21.7405C17.3704 22.4524 17.837 23 18.6148 23C18.9259 23 19.1852 22.9453 19.4444 22.7262L19.1852 22.2881C18.9778 22.4524 18.8222 22.5072 18.563 22.5072C18.1481 22.5072 17.8889 22.1786 17.8889 21.7405C17.8889 21.3024 18.2 20.9739 18.563 20.9739C18.7704 20.9739 18.9778 21.0286 19.1852 21.1929L19.4444 20.7548C19.1852 20.5358 18.9778 20.481 18.6148 20.481C17.837 20.4262 17.3704 20.9739 17.3704 21.7405ZM22.037 21.7405V20.5358H21.5185V20.8096C21.363 20.5905 21.1037 20.481 20.7926 20.481C20.1185 20.481 19.6518 21.0286 19.6518 21.7405C19.6518 22.4524 20.1704 23 20.7926 23C21.1037 23 21.363 22.8905 21.5185 22.6715V23H22.037V21.7405ZM20.1704 21.7405C20.1704 21.3024 20.4296 20.9739 20.8444 20.9739C21.2593 20.9739 21.5185 21.3024 21.5185 21.7405C21.5185 22.1786 21.2074 22.5072 20.8444 22.5072C20.4296 22.5072 20.1704 22.1786 20.1704 21.7405ZM14.1556 20.4262C13.4815 20.4262 13.0148 20.9191 13.0148 21.6858C13.0148 22.4524 13.4815 22.9453 14.2074 22.9453C14.5185 22.9453 14.8815 22.8358 15.1407 22.6167L14.8815 22.2334C14.6741 22.3977 14.4667 22.5072 14.2074 22.5072C13.8963 22.5072 13.5852 22.3429 13.5333 21.9048H15.2444V21.6858C15.1926 20.9739 14.7778 20.4262 14.1556 20.4262ZM14.1556 20.9191C14.4667 20.9191 14.6741 21.1381 14.7259 21.5215H13.4815C13.5333 21.1929 13.7926 20.9191 14.1556 20.9191ZM26.6518 21.7405V19.55H26.1333V20.8096C25.9778 20.5905 25.7185 20.481 25.4074 20.481C24.7333 20.481 24.2667 21.0286 24.2667 21.7405C24.2667 22.4524 24.7852 23 25.4074 23C25.7185 23 25.9778 22.8905 26.1333 22.6715V23H26.6518V21.7405ZM24.7852 21.7405C24.7852 21.3024 25.0444 20.9739 25.4593 20.9739C25.8741 20.9739 26.1333 21.3024 26.1333 21.7405C26.1333 22.1786 25.8222 22.5072 25.4593 22.5072C25.0444 22.5072 24.7852 22.1786 24.7852 21.7405ZM7.93333 21.7405V20.5358H7.41481V20.8096C7.25926 20.5905 7 20.481 6.68888 20.481C6.01481 20.481 5.54814 21.0286 5.54814 21.7405C5.54814 22.4524 6.06666 23 6.68888 23C7 23 7.25926 22.8905 7.41481 22.6715V23H7.93333V21.7405ZM6.06666 21.7405C6.06666 21.3024 6.32592 20.9739 6.74074 20.9739C7.15555 20.9739 7.41481 21.3024 7.41481 21.7405C7.41481 22.1786 7.1037 22.5072 6.74074 22.5072C6.32592 22.5072 6.06666 22.1786 6.06666 21.7405Z" fill="#31313B"/>
<path d="M10.9926 13.581C10.6815 12.9238 10.4222 12.2119 10.2667 11.5C10.1111 10.7333 10.0074 9.96667 10.0074 9.2C10.0074 8.43333 10.1111 7.66667 10.2667 6.9C10.4222 6.1881 10.6815 5.47619 10.9926 4.81905C11.563 3.55952 12.3926 2.46429 13.4296 1.5881C11.9778 0.547619 10.3185 0 8.65926 0C3.88889 0 0 4.10714 0 9.14524C0 14.2381 3.88889 18.2905 8.65926 18.2905C10.4222 18.2905 12.0296 17.7429 13.4296 16.7571C12.3926 15.9357 11.563 14.8405 10.9926 13.581Z" fill="#31313B"/>
<path d="M19.3407 0C17.6296 0 16.0222 0.547619 14.5703 1.53333C15.6073 2.40952 16.437 3.55952 17.0073 4.76429C17.3185 5.42143 17.5777 6.13333 17.7333 6.84524C18.0444 8.37857 18.0444 9.9119 17.7333 11.4452C17.5777 12.1571 17.3185 12.869 17.0073 13.5262C16.6962 14.1833 16.3333 14.7857 15.8666 15.3881C15.4518 15.881 15.037 16.3738 14.5703 16.8119C15.9703 17.7976 17.6296 18.3452 19.3407 18.3452C24.1111 18.2905 27.9999 14.2381 27.9999 9.14524C27.9999 4.10714 24.1111 0 19.3407 0Z" fill="#31313B"/>
<path d="M17.3186 9.14525C17.3186 6.24287 16.0223 3.61429 14.0001 1.97144C12.0297 3.66905 10.7334 6.24287 10.7334 9.14525C10.7334 12.0476 12.0297 14.6762 14.0519 16.3191C16.0223 14.6762 17.3186 12.1024 17.3186 9.14525Z" fill="#31313B"/>
</g>
</svg>
