<svg width="67" height="31" viewBox="0 0 67 31" fill="none" xmlns="http://www.w3.org/2000/svg">
<g opacity="1">
<path d="M32.7637 18.6248H34.4571C35.3407 18.6248 35.9297 19.0791 35.9297 19.9119C35.9297 20.3662 35.7088 20.7447 35.3407 20.9719C35.856 21.1233 36.1505 21.6533 36.1505 22.1075C36.1505 23.0918 35.4143 23.546 34.5308 23.546H32.7637V18.6248ZM34.4571 20.669C34.8253 20.669 35.0462 20.3662 35.0462 20.0633C35.0462 19.6848 34.8253 19.4576 34.4571 19.4576H33.6473V20.669H34.4571ZM34.5308 22.7889C34.9725 22.7889 35.267 22.4861 35.267 22.0318C35.267 21.6532 35.0462 21.3504 34.5308 21.3504H33.5736V22.7889H34.5308ZM38.5066 19.9119C38.9483 19.9119 39.4637 20.0633 39.8319 20.4419L39.4637 21.0476C39.2429 20.8204 38.8747 20.669 38.5802 20.669C37.9912 20.669 37.5494 21.1233 37.5494 21.729C37.5494 22.3346 37.9912 22.8646 38.6538 22.8646C39.022 22.8646 39.3901 22.6375 39.6846 22.4104L40.0527 23.016C39.6846 23.3946 39.1692 23.6217 38.6538 23.6217C37.5494 23.6217 36.8132 22.7889 36.8132 21.8047C36.6659 20.8204 37.4022 19.9119 38.5066 19.9119ZM41.967 19.9119C42.9242 19.9119 43.5132 20.669 43.5132 21.5775V21.9561H41.1571C41.2308 22.5618 41.6725 22.8646 42.1879 22.8646C42.556 22.8646 42.9242 22.7132 43.1451 22.4861L43.5132 23.0918C43.1451 23.3946 42.6297 23.6217 42.1143 23.6217C41.0099 23.6217 40.2736 22.7889 40.2736 21.8047C40.2 20.7447 40.9363 19.9119 41.967 19.9119ZM41.0099 18.6248H41.6725V19.4576H41.0099V18.6248ZM42.6297 21.3504C42.6297 20.8961 42.3352 20.5933 41.967 20.5933C41.5253 20.5933 41.2308 20.8961 41.1571 21.3504H42.6297ZM42.2615 18.6248H42.9242V19.4576H42.2615V18.6248ZM45.9429 19.9876H49.0352V23.546H48.1516V20.7447H46.7528V23.546H45.8692L45.9429 19.9876ZM49.9187 19.9876H50.7286V20.4419C50.9495 20.0633 51.3912 19.8362 51.833 19.8362C52.7901 19.8362 53.3791 20.5933 53.3791 21.6533C53.3791 22.7889 52.7165 23.4703 51.833 23.4703C51.4648 23.4703 51.0967 23.3189 50.8022 22.9403V24.7574H49.9187V19.9876ZM51.6121 22.8646C52.0538 22.8646 52.4956 22.4861 52.4956 21.8047C52.4956 21.1233 52.1275 20.669 51.6857 20.669C51.244 20.669 50.8022 21.0476 50.8022 21.8047C50.7286 22.3346 51.0231 22.8646 51.6121 22.8646ZM55.7352 19.9119C56.7659 19.9119 57.6495 20.669 57.6495 21.729C57.6495 22.7889 56.8396 23.546 55.7352 23.546C54.7044 23.546 53.8209 22.7889 53.8209 21.729C53.8209 20.7447 54.7044 19.9119 55.7352 19.9119ZM55.7352 22.8646C56.3242 22.8646 56.7659 22.4104 56.7659 21.729C56.7659 21.1233 56.3242 20.5933 55.7352 20.5933C55.1461 20.5933 54.7044 21.0476 54.7044 21.729C54.7044 22.4861 55.1461 22.8646 55.7352 22.8646ZM58.3121 19.9876H59.122V22.7889H60.2264V19.9876H61.0363V22.7889H62.1407V19.9876H62.9506V22.7889H63.4659V24.3788H62.7297V23.546H58.4593L58.3121 19.9876ZM65.4538 19.9119C66.411 19.9119 67 20.669 67 21.5775V21.9561H64.644C64.7176 22.5618 65.1593 22.8646 65.6747 22.8646C66.0429 22.8646 66.411 22.7132 66.6319 22.4861L66.9264 23.0918C66.5582 23.3946 66.0429 23.6217 65.5275 23.6217C64.4231 23.6217 63.6868 22.7889 63.6868 21.8047C63.7604 20.7447 64.4231 19.9119 65.4538 19.9119ZM66.1165 21.3504C66.1165 20.8961 65.822 20.5933 65.4538 20.5933C65.0121 20.5933 64.7176 20.8961 64.644 21.3504H66.1165Z" fill="#31313B"/>
<path d="M47.4154 4.54264V14.6879C47.4154 14.8393 47.2681 14.9907 47.1209 14.9907H45.133C44.9857 14.9907 44.8385 14.8393 44.8385 14.6879V4.54264C44.8385 4.39122 44.9857 4.2398 45.133 4.2398H47.1209C47.3418 4.2398 47.4154 4.39122 47.4154 4.54264ZM63.0978 4.2398H60.889C60.7418 4.2398 60.6681 4.31551 60.6681 4.46693L58.9011 10.4481L56.9868 4.46693C56.9132 4.31551 56.8396 4.31551 56.7659 4.31551H55.2198C55.0725 4.31551 54.9989 4.39122 54.9989 4.46693L53.0846 10.4481L51.3176 4.46693C51.3176 4.31551 51.1703 4.2398 51.0967 4.2398H48.8143C48.7407 4.2398 48.667 4.31551 48.5934 4.39122C48.5198 4.46693 48.5198 4.54264 48.5198 4.61835L51.833 14.7636C51.9066 14.915 51.9802 14.915 52.0538 14.915H53.8209C53.9681 14.915 54.0418 14.8393 54.0418 14.7636L55.956 8.85815L57.8703 14.7636C57.944 14.915 58.0176 14.915 58.0912 14.915H59.8582C60.0055 14.915 60.0791 14.8393 60.0791 14.7636L63.3923 4.61835C63.3923 4.54264 63.3923 4.46693 63.3187 4.39122C63.3187 4.31551 63.1714 4.2398 63.0978 4.2398ZM66.4846 4.2398H64.4967C64.3495 4.2398 64.2022 4.39122 64.2022 4.54264V14.6879C64.2022 14.8393 64.3495 14.9907 64.4967 14.9907H66.4846C66.6319 14.9907 66.7791 14.8393 66.7791 14.6879V4.54264C66.7791 4.39122 66.6319 4.2398 66.4846 4.2398ZM43.7341 14.6122C43.8077 14.6879 43.8077 14.8393 43.7341 14.915C43.6604 14.915 43.6604 14.9907 43.5868 14.9907H41.1571C41.0835 14.9907 40.9363 14.915 40.9363 14.8393L40.4945 14.3093C39.611 14.8393 38.6539 15.2178 37.5495 15.2178C34.5308 15.2178 32.1011 12.7194 32.1011 9.61525C32.1011 6.51112 34.5308 4.01267 37.5495 4.01267C40.5681 4.01267 42.9978 6.51112 42.9978 9.61525C42.9978 10.6752 42.7033 11.7352 42.1143 12.6437L43.7341 14.6122ZM38.8747 12.3408L37.7703 10.978C37.6231 10.8266 37.7703 10.5995 37.9176 10.5995H40.2C40.3473 10.2967 40.3473 9.9181 40.3473 9.53954C40.3473 7.87391 39.1692 6.43541 37.4758 6.43541C35.7824 6.43541 34.6044 7.87391 34.6044 9.53954C34.6044 11.2052 35.7824 12.6437 37.4758 12.6437C37.9912 12.7194 38.433 12.568 38.8747 12.3408ZM23.9286 20.8961C24.0022 21.5018 23.8549 21.729 23.6341 21.729C23.4132 21.729 23.1923 21.5018 22.8978 20.9719C22.6033 20.5176 22.456 19.9119 22.6769 19.6848C22.7505 19.5334 22.9714 19.4576 23.2659 19.5333C23.7077 19.6848 23.9286 20.5176 23.9286 20.8961ZM21.2044 22.1832C21.7934 22.7132 22.0143 23.3189 21.6462 23.7731C21.4989 24.0003 21.2044 24.1517 20.8363 24.1517C20.4681 24.1517 20.1736 24.0003 19.9527 23.7731C19.4374 23.3189 19.2165 22.4861 19.5846 22.0318C19.7319 21.8804 19.9527 21.729 20.1736 21.729C20.5418 21.8047 20.9099 21.9561 21.2044 22.1832ZM20.1736 27.1801C22.7506 27.1801 25.5484 28.0887 28.6407 30.8899C28.9352 31.1928 29.3769 30.8142 29.0824 30.4357C26.0637 26.4987 23.2659 25.7416 20.4681 25.1359C17.0813 24.3788 15.3143 22.4104 14.0626 20.2147C13.8418 19.7605 13.6945 19.8362 13.6945 20.4419C13.6945 21.2747 13.7681 22.1075 13.8418 22.9403H13.4C8.54066 22.9403 4.56484 18.852 4.56484 13.7793C4.56484 8.70673 8.54066 4.61835 13.4 4.61835C18.2593 4.61835 22.2352 8.70673 22.2352 13.7793C22.2352 14.1579 22.2352 14.5364 22.1615 14.8393C21.4989 14.6879 20.2473 14.6879 19.3637 14.7636C18.9956 14.7636 19.0692 14.9907 19.2901 14.9907C22.2352 15.5207 24.2231 17.4135 24.6648 20.8204C24.6648 20.8961 24.8121 20.8961 24.8121 20.8961C25.9901 18.852 26.7264 16.4292 26.7264 13.7793C26.8 6.20828 20.8363 0 13.4 0C5.96374 0 0 6.13256 0 13.7793C0 21.4261 6.03736 27.5587 13.4 27.5587C15.3879 27.6344 17.3022 27.1801 20.1736 27.1801Z" fill="#31313B"/>
</g>
</svg>
