<svg width="434" height="211" viewBox="0 0 434 211" fill="none" xmlns="http://www.w3.org/2000/svg" preserveAspectRatio="none">
<g opacity="0.3">
<path d="M10 0L20 8H0L10 0Z" fill="url(#paint0_linear)"/>
<path d="M89 0L99 8H79L89 0Z" fill="url(#paint1_linear)"/>
<path d="M168 0L178 8H158L168 0Z" fill="url(#paint2_linear)"/>
<path d="M246.5 0L256 8H237L246.5 0Z" fill="url(#paint3_linear)"/>
<path d="M325.5 0L335 8H316L325.5 0Z" fill="url(#paint4_linear)"/>
<path d="M404.5 0L414 8H395L404.5 0Z" fill="url(#paint5_linear)"/>
<path d="M49 0L59 8H39L49 0Z" fill="url(#paint6_linear)"/>
<path d="M128 0L138 8H118L128 0Z" fill="url(#paint7_linear)"/>
<path d="M207 0L217 8H197L207 0Z" fill="url(#paint8_linear)"/>
<path d="M286 0L296 8H276L286 0Z" fill="url(#paint9_linear)"/>
<path d="M365 0L375 8H355L365 0Z" fill="url(#paint10_linear)"/>
<path d="M69 0L79 8H59L69 0Z" fill="url(#paint11_linear)"/>
<path d="M148 0L158 8H138L148 0Z" fill="url(#paint12_linear)"/>
<path d="M227 0L237 8H217L227 0Z" fill="url(#paint13_linear)"/>
<path d="M306 0L316 8H296L306 0Z" fill="url(#paint14_linear)"/>
<path d="M385 0L395 8H375L385 0Z" fill="url(#paint15_linear)"/>
<path d="M29.5 0L39 8H20L29.5 0Z" fill="url(#paint16_linear)"/>
<path d="M108.5 0L118 8H99L108.5 0Z" fill="url(#paint17_linear)"/>
<path d="M187.5 0L197 8H178L187.5 0Z" fill="url(#paint18_linear)"/>
<path d="M266 0L276 8H256L266 0Z" fill="url(#paint19_linear)"/>
<path d="M345 0L355 8H335L345 0Z" fill="url(#paint20_linear)"/>
<path d="M424 0L434 8H414L424 0Z" fill="url(#paint21_linear)"/>
<path d="M20 8H0V211H434V8H414H395H375H355H335H316H296H276H256H237H217H197H178H158H138H118H99H79H59H39H20Z" fill="url(#paint22_linear)"/>
</g>
<defs>
<linearGradient id="paint0_linear" x1="217" y1="0" x2="217" y2="211" gradientUnits="userSpaceOnUse">
<stop stop-color="#425072"/>
<stop offset="1" stop-color="#282E3D" stop-opacity="0"/>
</linearGradient>
<linearGradient id="paint1_linear" x1="217" y1="0" x2="217" y2="211" gradientUnits="userSpaceOnUse">
<stop stop-color="#425072"/>
<stop offset="1" stop-color="#282E3D" stop-opacity="0"/>
</linearGradient>
<linearGradient id="paint2_linear" x1="217" y1="0" x2="217" y2="211" gradientUnits="userSpaceOnUse">
<stop stop-color="#425072"/>
<stop offset="1" stop-color="#282E3D" stop-opacity="0"/>
</linearGradient>
<linearGradient id="paint3_linear" x1="217" y1="0" x2="217" y2="211" gradientUnits="userSpaceOnUse">
<stop stop-color="#425072"/>
<stop offset="1" stop-color="#282E3D" stop-opacity="0"/>
</linearGradient>
<linearGradient id="paint4_linear" x1="217" y1="0" x2="217" y2="211" gradientUnits="userSpaceOnUse">
<stop stop-color="#425072"/>
<stop offset="1" stop-color="#282E3D" stop-opacity="0"/>
</linearGradient>
<linearGradient id="paint5_linear" x1="217" y1="0" x2="217" y2="211" gradientUnits="userSpaceOnUse">
<stop stop-color="#425072"/>
<stop offset="1" stop-color="#282E3D" stop-opacity="0"/>
</linearGradient>
<linearGradient id="paint6_linear" x1="217" y1="0" x2="217" y2="211" gradientUnits="userSpaceOnUse">
<stop stop-color="#425072"/>
<stop offset="1" stop-color="#282E3D" stop-opacity="0"/>
</linearGradient>
<linearGradient id="paint7_linear" x1="217" y1="0" x2="217" y2="211" gradientUnits="userSpaceOnUse">
<stop stop-color="#425072"/>
<stop offset="1" stop-color="#282E3D" stop-opacity="0"/>
</linearGradient>
<linearGradient id="paint8_linear" x1="217" y1="0" x2="217" y2="211" gradientUnits="userSpaceOnUse">
<stop stop-color="#425072"/>
<stop offset="1" stop-color="#282E3D" stop-opacity="0"/>
</linearGradient>
<linearGradient id="paint9_linear" x1="217" y1="0" x2="217" y2="211" gradientUnits="userSpaceOnUse">
<stop stop-color="#425072"/>
<stop offset="1" stop-color="#282E3D" stop-opacity="0"/>
</linearGradient>
<linearGradient id="paint10_linear" x1="217" y1="0" x2="217" y2="211" gradientUnits="userSpaceOnUse">
<stop stop-color="#425072"/>
<stop offset="1" stop-color="#282E3D" stop-opacity="0"/>
</linearGradient>
<linearGradient id="paint11_linear" x1="217" y1="0" x2="217" y2="211" gradientUnits="userSpaceOnUse">
<stop stop-color="#425072"/>
<stop offset="1" stop-color="#282E3D" stop-opacity="0"/>
</linearGradient>
<linearGradient id="paint12_linear" x1="217" y1="0" x2="217" y2="211" gradientUnits="userSpaceOnUse">
<stop stop-color="#425072"/>
<stop offset="1" stop-color="#282E3D" stop-opacity="0"/>
</linearGradient>
<linearGradient id="paint13_linear" x1="217" y1="0" x2="217" y2="211" gradientUnits="userSpaceOnUse">
<stop stop-color="#425072"/>
<stop offset="1" stop-color="#282E3D" stop-opacity="0"/>
</linearGradient>
<linearGradient id="paint14_linear" x1="217" y1="0" x2="217" y2="211" gradientUnits="userSpaceOnUse">
<stop stop-color="#425072"/>
<stop offset="1" stop-color="#282E3D" stop-opacity="0"/>
</linearGradient>
<linearGradient id="paint15_linear" x1="217" y1="0" x2="217" y2="211" gradientUnits="userSpaceOnUse">
<stop stop-color="#425072"/>
<stop offset="1" stop-color="#282E3D" stop-opacity="0"/>
</linearGradient>
<linearGradient id="paint16_linear" x1="217" y1="0" x2="217" y2="211" gradientUnits="userSpaceOnUse">
<stop stop-color="#425072"/>
<stop offset="1" stop-color="#282E3D" stop-opacity="0"/>
</linearGradient>
<linearGradient id="paint17_linear" x1="217" y1="0" x2="217" y2="211" gradientUnits="userSpaceOnUse">
<stop stop-color="#425072"/>
<stop offset="1" stop-color="#282E3D" stop-opacity="0"/>
</linearGradient>
<linearGradient id="paint18_linear" x1="217" y1="0" x2="217" y2="211" gradientUnits="userSpaceOnUse">
<stop stop-color="#425072"/>
<stop offset="1" stop-color="#282E3D" stop-opacity="0"/>
</linearGradient>
<linearGradient id="paint19_linear" x1="217" y1="0" x2="217" y2="211" gradientUnits="userSpaceOnUse">
<stop stop-color="#425072"/>
<stop offset="1" stop-color="#282E3D" stop-opacity="0"/>
</linearGradient>
<linearGradient id="paint20_linear" x1="217" y1="0" x2="217" y2="211" gradientUnits="userSpaceOnUse">
<stop stop-color="#425072"/>
<stop offset="1" stop-color="#282E3D" stop-opacity="0"/>
</linearGradient>
<linearGradient id="paint21_linear" x1="217" y1="0" x2="217" y2="211" gradientUnits="userSpaceOnUse">
<stop stop-color="#425072"/>
<stop offset="1" stop-color="#282E3D" stop-opacity="0"/>
</linearGradient>
<linearGradient id="paint22_linear" x1="217" y1="0" x2="217" y2="211" gradientUnits="userSpaceOnUse">
<stop stop-color="#425072"/>
<stop offset="1" stop-color="#282E3D" stop-opacity="0"/>
</linearGradient>
</defs>
</svg>
