<svg width="33" height="11" viewBox="0 0 33 11" fill="none" xmlns="http://www.w3.org/2000/svg">
<path d="M9.71918 0.183345L6.96164 7.42501L5.83151 1.28334C5.69589 0.595845 5.15342 0.183345 4.61096 0.183345H0.090411L0 0.504178C0.949315 0.687511 1.98904 1.05418 2.62192 1.42084C3.02877 1.65001 3.11918 1.83334 3.25479 2.33751L5.37945 10.8167H8.18219L12.5219 0.183345H9.71918ZM13.6521 0.183345L11.437 10.8167H14.1041L16.3192 0.183345H13.6521ZM28.9767 3.07084L29.7904 7.05834H27.5753L28.9767 3.07084ZM28.5699 0.183345C28.0726 0.183345 27.6205 0.504178 27.4397 0.962511L23.4164 10.8167H26.2192L26.7616 9.21251H30.1973L30.5137 10.8167H33L30.8301 0.183345H28.5699ZM17.0877 3.52918C17.0877 5.04168 18.3986 5.91251 19.4384 6.41668C20.4781 6.92084 20.8397 7.28751 20.8397 7.74584C20.8397 8.47918 20.026 8.80001 19.2575 8.80001C17.9014 8.80001 17.1329 8.43334 16.5 8.11251L16.0027 10.45C16.6356 10.725 17.7658 11 18.9863 11C21.789 11 23.6425 9.57918 23.6425 7.37918C23.6425 4.58334 19.8904 4.40001 19.8904 3.16251C19.8904 2.79584 20.2521 2.38334 21.0205 2.29168C21.3822 2.24584 22.4671 2.20001 23.6425 2.75001L24.0945 0.504178C23.4616 0.275011 22.6479 0.0458447 21.6082 0.0458447C18.9411 1.1351e-05 17.0877 1.46668 17.0877 3.52918Z" fill="#31313B"/>
</svg>
